<svg xmlns="http://www.w3.org/2000/svg" viewBox="0 0 64 80" x="0px" y="0px"><g data-name="13-Php"><rect x="13" y="4" width="5" height="2"/><rect x="9" y="4" width="2" height="2"/><path d="M59,56H5a5.006,5.006,0,0,1-5-5V9A5.006,5.006,0,0,1,5,4H7V6H5A3,3,0,0,0,2,9V51a3,3,0,0,0,3,3H59a3,3,0,0,0,3-3V9a3,3,0,0,0-3-3H50V4h9a5.006,5.006,0,0,1,5,5V51A5.006,5.006,0,0,1,59,56Z"/><rect x="18.438" y="56" width="4.123" height="2" transform="translate(-39.768 63.085) rotate(-75.984)"/><path d="M44,64H18a1,1,0,0,1-1-1V61a3,3,0,0,1,3-3H40.719l-.689-2.758,1.94-.484.839,3.352A3.008,3.008,0,0,1,45,61v2A1,1,0,0,1,44,64ZM19,62H43V61a1,1,0,0,0-1-1H20a1,1,0,0,0-1,1Z"/><rect x="1" y="46" width="62" height="2"/><rect x="4" y="50" width="2" height="2"/><rect x="8" y="50" width="6" height="2"/><path d="M15,44H13V9a1,1,0,0,1,.293-.707l8-8A1,1,0,0,1,22,0H48a3,3,0,0,1,3,3V27H49V3a1,1,0,0,0-1-1H22.414L15,9.414Z"/><path d="M22,10H14a1,1,0,0,1-.707-1.707l8-8A1,1,0,0,1,23,1V9A1,1,0,0,1,22,10ZM16.414,8H21V3.414Z"/><rect x="24" y="36" width="2" height="5"/><path d="M28,37H25a1,1,0,0,1-1-1V30a1,1,0,0,1,1-1h3a4,4,0,0,1,0,8Zm-2-2h2a2,2,0,0,0,0-4H26Z"/><path d="M48,37H45a1,1,0,0,1-1-1V30a1,1,0,0,1,1-1h3a4,4,0,0,1,0,8Zm-2-2h2a2,2,0,0,0,0-4H46Z"/><rect x="44" y="36" width="2" height="5"/><rect x="34" y="29" width="2" height="12"/><rect x="40" y="29" width="2" height="12"/><rect x="35" y="34" width="6" height="2"/><path d="M52,44H24a3,3,0,0,1-3-3V29a3,3,0,0,1,3-3H52a3,3,0,0,1,3,3V41A3,3,0,0,1,52,44ZM24,28a1,1,0,0,0-1,1V41a1,1,0,0,0,1,1H52a1,1,0,0,0,1-1V29a1,1,0,0,0-1-1Z"/><rect x="49" y="43" width="2" height="4"/><path d="M44,24H42V23H40.77a1,1,0,0,1-.976-.778,7.917,7.917,0,0,0-1.027-2.473,1,1,0,0,1,.139-1.241l.872-.872-1.414-1.414-.872.872a1,1,0,0,1-1.241.139,7.917,7.917,0,0,0-2.473-1.027A1,1,0,0,1,33,15.23V14H31v1.23a1,1,0,0,1-.778.976,7.917,7.917,0,0,0-2.473,1.027,1,1,0,0,1-1.241-.139l-.872-.872-1.414,1.414.872.872a1,1,0,0,1,.139,1.241,7.917,7.917,0,0,0-1.027,2.473A1,1,0,0,1,23.23,23H22v1H20V22a1,1,0,0,1,1-1h1.466a9.941,9.941,0,0,1,.672-1.619L22.1,18.343a1,1,0,0,1,0-1.414L24.929,14.1a1,1,0,0,1,1.414,0l1.038,1.037A9.941,9.941,0,0,1,29,14.466V13a1,1,0,0,1,1-1h4a1,1,0,0,1,1,1v1.466a9.941,9.941,0,0,1,1.619.672L37.657,14.1a1,1,0,0,1,1.414,0L41.9,16.929a1,1,0,0,1,0,1.414l-1.037,1.038A9.941,9.941,0,0,1,41.534,21H43a1,1,0,0,1,1,1Z"/><path d="M37,24H35a3,3,0,0,0-6,0H27a5,5,0,0,1,10,0Z"/></g><text x="0" y="79" fill="#000000" font-size="5px" font-weight="bold" font-family="'Helvetica Neue', Helvetica, Arial-Unicode, Arial, Sans-serif">Created by Justicon</text><text x="0" y="84" fill="#000000" font-size="5px" font-weight="bold" font-family="'Helvetica Neue', Helvetica, Arial-Unicode, Arial, Sans-serif">from the Noun Project</text></svg>